<svg width="1110" height="884" viewBox="0 0 1110 884" fill="none" xmlns="http://www.w3.org/2000/svg">
<g style="mix-blend-mode:color-dodge">
<path fill-rule="evenodd" clip-rule="evenodd" d="M497.528 0.908649C606.611 -8.91269 693.962 63.2146 789.987 104.73C902.631 153.43 1079.02 166.157 1106.59 264.23C1134.84 364.749 980.394 436.541 907.346 522.259C857.359 580.915 808.18 634.3 747.037 686.14C667.69 753.414 610.499 845.279 497.528 869.721C372.196 896.837 220.255 887.768 121.951 821.382C24.9481 755.874 28.4022 640.715 11.5655 541.542C-2.30388 459.848 -12.1037 375.293 33.6022 300.985C76.127 231.849 174.66 202.279 250.358 153.316C333.228 99.7132 390.549 10.5405 497.528 0.908649Z" fill="url(#paint0_linear_9_84)"/>
</g>
<defs>
<linearGradient id="paint0_linear_9_84" x1="1001.75" y1="529.919" x2="80.5413" y2="-74.5071" gradientUnits="userSpaceOnUse">
<stop stop-color="#E51421"/>
<stop offset="1" stop-color="#C4C4C4" stop-opacity="0"/>
</linearGradient>
</defs>
</svg>
