<svg width="685" height="616" viewBox="0 0 685 616" fill="none" xmlns="http://www.w3.org/2000/svg">
<g style="mix-blend-mode:color-dodge">
<path fill-rule="evenodd" clip-rule="evenodd" d="M191.492 12.8185C244.989 -22.0522 314.542 27.5846 377.29 39.4425C430.913 49.576 484.721 52.2053 533.138 77.3816C587.514 105.656 647.341 136.272 671.679 192.52C696.207 249.209 681.871 315.508 661.382 373.778C642.614 427.155 604.249 469.779 561.258 506.564C521.329 540.729 473.469 559.833 423.818 577.05C368.722 596.155 313.042 624.954 256.099 612.381C196.717 599.271 153.061 551.918 111.013 507.986C64.7655 459.665 -5.12497 412.013 0.54008 345.367C6.38713 276.58 103.181 255.572 137.558 195.705C169.861 139.448 137.146 48.2425 191.492 12.8185Z" fill="url(#paint0_linear_9_86)"/>
</g>
<defs>
<linearGradient id="paint0_linear_9_86" x1="-359.422" y1="1370.49" x2="616.619" y2="281.901" gradientUnits="userSpaceOnUse">
<stop stop-color="#E51421"/>
<stop offset="1" stop-color="#E51421" stop-opacity="0"/>
</linearGradient>
</defs>
</svg>
