<svg width="602" height="611" viewBox="0 0 602 611" fill="none" xmlns="http://www.w3.org/2000/svg">
<g style="mix-blend-mode:color-dodge">
<path fill-rule="evenodd" clip-rule="evenodd" d="M12.7029 110.58C42.5509 54.127 127.453 63.7665 188.07 43.6783C239.871 26.5114 288.193 2.69342 342.744 1.20517C404.009 -0.466246 471.177 -2.73689 519.756 34.6292C568.716 72.2879 588.361 137.212 598.731 198.103C608.229 253.88 595.374 309.767 575.641 362.795C557.313 412.047 524.741 451.979 489.687 491.131C450.789 534.576 416.085 586.781 360.197 603.427C301.915 620.786 240.763 600.575 182.677 582.572C118.789 562.772 34.5538 555.032 7.15921 494.013C-21.1155 431.034 53.3164 365.686 54.3144 296.658C55.2522 231.793 -17.6189 167.93 12.7029 110.58Z" fill="url(#paint0_linear_9_85)"/>
</g>
<defs>
<linearGradient id="paint0_linear_9_85" x1="190" y1="1565" x2="515" y2="139.5" gradientUnits="userSpaceOnUse">
<stop stop-color="#E51421"/>
<stop offset="1" stop-color="#E51421" stop-opacity="0"/>
</linearGradient>
</defs>
</svg>
